<svg version="1.1" preserveAspectRatio="none" xmlns="http://www.w3.org/2000/svg" width="500" height="500" viewBox="0 0 500 500"><rect width="100%" height="100%" fill="#212D94" fill-opacity="1"/><svg viewBox="13.509 143.1811 499.9205 180" width="333" height="119.89906395116823" x="83.5px" y="190.0505px" xmlns="http://www.w3.org/2000/svg" xmlns:xlink="http://www.w3.org/1999/xlink" preserveAspectRatio="none"><defs></defs><style>.a60p5ZquTEfillColor {fill:#F1F1F1;fill-opacity:0;}.ahs7pIl34ofillColor {fill:#0A0A0A;fill-opacity:0.1;}.background {fill:#212D94;fill-opacity:1;}.companyName {fill:#F1F1F1;fill-opacity:1;}.icon3-str {stroke:#0A0A0A;stroke-opacity:1;}.shapeStroke-str {stroke:#0A0A0A;stroke-opacity:1;}.text-str {stroke:#F1F1F1;stroke-opacity:1;}</style><g opacity="1" transform="rotate(0 13.509 143.1811)">
<svg width="249.9603" height="180" x="13.509" y="143.1811" version="1.1" preserveAspectRatio="none" viewBox="0 0 249.9603 180">
  <defs><rect x="11.25" y="11.25" width="227.4603" height="157.5" rx="0px" ry="0px" id="id-60p5ZquTE1731686968992"></rect></defs><use class="a60p5ZquTEfillColor text-str" style="stroke-width:22.5;" xlink:href="#id-60p5ZquTE1731686968992"></use>
</svg>
</g><g opacity="1" transform="rotate(0 263.4693 143.1811)">
<svg width="249.9602" height="180" x="263.4693" y="143.1811" version="1.1" preserveAspectRatio="none" viewBox="0 0 249.9602 180">
  <defs><rect x="11.25" y="11.25" width="227.4602" height="157.5" rx="0px" ry="0px" id="id-hs7pIl34o1731686968992"></rect></defs><use class="ahs7pIl34ofillColor icon3-str" style="stroke-width:22.5;" xlink:href="#id-hs7pIl34o1731686968992"></use>
</svg>
</g><g opacity="1" transform="rotate(0 23.509 153.1811)">
<svg width="479.9205" height="160" x="23.509" y="153.1811" version="1.1" preserveAspectRatio="none" viewBox="0 0 479.9205 160">
  <defs><rect x="0" y="0" width="479.9205" height="160" rx="0px" ry="0px" id="id-BO9lbzKc31731686968992"></rect></defs><use class="background shapeStroke-str" style="stroke-width:0;" xlink:href="#id-BO9lbzKc31731686968992"></use>
</svg>
</g><g opacity="1" transform="rotate(0 63.509 203.1811)">
<svg width="399.9205" height="60" x="63.509" y="203.1811" version="1.1" preserveAspectRatio="none" viewBox="1.68 -31.2 262.08 39.32">
  <g transform="matrix(1 0 0 1 0 0)" class="companyName"><path id="id-D6z1nYkh11" d="M19.28-23.20Q15.52-25.16 12.60-25.16L12.60-25.16Q10.44-25.16 9.18-24.20Q7.92-23.24 7.92-21.56L7.92-21.56Q7.92-19.92 9.50-18.82Q11.08-17.72 13.92-16.64L13.92-16.64Q16.08-15.88 17.62-14.90Q19.16-13.92 20.16-12.24Q21.16-10.56 21.16-8L21.16-8Q21.16-5.68 20-3.80Q18.84-1.92 16.64-0.80Q14.44 0.32 11.44 0.32L11.44 0.32Q8.80 0.32 6.24-0.50Q3.68-1.32 1.68-2.76L1.68-2.76L3.76-6.40Q5.24-5.28 7.26-4.54Q9.28-3.80 11-3.80L11-3.80Q13.12-3.80 14.72-4.82Q16.32-5.84 16.32-7.96L16.32-7.96Q16.32-9.64 14.98-10.76Q13.64-11.88 11.24-12.80L11.24-12.80Q8.76-13.72 7.12-14.62Q5.48-15.52 4.30-17.14Q3.12-18.76 3.12-21.20L3.12-21.20Q3.12-24.76 5.54-26.94Q7.96-29.12 11.92-29.28L11.92-29.28Q14.80-29.28 16.98-28.62Q19.16-27.96 21.04-26.76L21.04-26.76L19.28-23.20Z M39.40-17.64Q41.76-17.64 43.34-16.22Q44.92-14.80 44.96-12.56L44.96-12.56L44.96 0L40.48 0L40.48-10.96Q40.40-12.28 39.70-13.04Q39-13.80 37.60-13.84L37.60-13.84Q35.52-13.84 34.18-12.04Q32.84-10.24 32.84-7.52L32.84-7.52L32.84 0L28.36 0L28.36-31.20L32.76-31.20L32.76-14.04Q33.72-15.68 35.42-16.66Q37.12-17.64 39.40-17.64L39.40-17.64Z M51.72-8.64Q51.72-11.16 52.94-13.24Q54.16-15.32 56.32-16.50Q58.48-17.68 61.24-17.68L61.24-17.68Q64-17.68 66.14-16.50Q68.28-15.32 69.44-13.26Q70.60-11.20 70.60-8.64L70.60-8.64Q70.60-6.08 69.44-4.02Q68.28-1.96 66.14-0.76Q64 0.44 61.20 0.44L61.20 0.44Q58.48 0.44 56.32-0.66Q54.16-1.76 52.94-3.82Q51.72-5.88 51.72-8.64L51.72-8.64ZM56.24-8.60Q56.24-6.32 57.64-4.78Q59.04-3.24 61.12-3.24L61.12-3.24Q63.28-3.24 64.66-4.76Q66.04-6.28 66.04-8.60L66.04-8.60Q66.04-10.92 64.66-12.46Q63.28-14 61.12-14L61.12-14Q59.04-14 57.64-12.42Q56.24-10.84 56.24-8.60L56.24-8.60Z M88.44-17.68Q90.80-17.68 92.72-16.56Q94.64-15.44 95.72-13.36Q96.80-11.28 96.80-8.52L96.80-8.52Q96.80-5.80 95.62-3.76Q94.44-1.72 92.34-0.64Q90.24 0.44 87.60 0.44L87.60 0.44Q85.92 0.44 84.36-0.24Q82.80-0.92 81.80-2.08L81.80-2.08L81.80 8.12L77.32 8.12L77.32-17.24L81.20-17.24L81.60-14.72Q82.92-16.08 84.66-16.88Q86.40-17.68 88.44-17.68L88.44-17.68ZM86.72-3.12Q88.20-3.12 89.46-3.82Q90.72-4.52 91.48-5.72Q92.24-6.92 92.24-8.44L92.24-8.44Q92.24-10.80 90.74-12.34Q89.24-13.88 87.04-13.88L87.04-13.88Q85.08-13.88 83.74-12.92Q82.40-11.96 81.80-10.24L81.80-10.24L81.80-6.84Q82.20-5.20 83.54-4.16Q84.88-3.12 86.72-3.12L86.72-3.12Z M114.64-17.68Q117.00-17.68 118.92-16.56Q120.84-15.44 121.92-13.36Q123.00-11.28 123.00-8.52L123.00-8.52Q123.00-5.80 121.82-3.76Q120.64-1.72 118.54-0.64Q116.44 0.44 113.80 0.44L113.80 0.44Q112.12 0.44 110.56-0.24Q109.00-0.92 108.00-2.08L108.00-2.08L108.00 8.12L103.52 8.12L103.52-17.24L107.40-17.24L107.80-14.72Q109.12-16.08 110.86-16.88Q112.60-17.68 114.64-17.68L114.64-17.68ZM112.92-3.12Q114.40-3.12 115.66-3.82Q116.92-4.52 117.68-5.72Q118.44-6.92 118.44-8.44L118.44-8.44Q118.44-10.80 116.94-12.34Q115.44-13.88 113.24-13.88L113.24-13.88Q111.28-13.88 109.94-12.92Q108.60-11.96 108.00-10.24L108.00-10.24L108.00-6.84Q108.40-5.20 109.74-4.16Q111.08-3.12 112.92-3.12L112.92-3.12Z M141.80-16.92L145.88-16.92L134.96 8.12L130.56 8.12L134.52-0.72L126.68-16.92L131.72-16.92L136.76-5.72L141.80-16.92Z M175.64-2.68Q174.44-1.56 171.46-0.62Q168.48 0.32 166.00 0.32L166.00 0.32Q161.40 0.32 157.92-1.52Q154.44-3.36 152.56-6.58Q150.68-9.80 150.68-13.88L150.68-13.88Q150.68-18.80 152.70-22.32Q154.72-25.84 158.14-27.64Q161.56-29.44 165.64-29.44L165.64-29.44Q168.16-29.44 170.42-28.86Q172.68-28.28 174.40-27.32L174.40-27.32L172.88-23Q171.68-23.72 169.70-24.24Q167.72-24.76 166.24-24.76L166.24-24.76Q161.24-24.76 158.36-22Q155.48-19.24 155.48-14.28L155.48-14.28Q155.48-11.32 156.82-9.06Q158.16-6.80 160.58-5.56Q163.00-4.32 166.12-4.32L166.12-4.32Q167.52-4.32 168.80-4.58Q170.08-4.84 170.96-5.32L170.96-5.32L170.96-10.16L165.48-10.16L165.48-14.64L175.64-14.64L175.64-2.68Z M183.80-31.20L188.28-31.20L188.28 0L183.80 0L183.80-31.20Z M195.04-8.64Q195.04-11.16 196.26-13.24Q197.48-15.32 199.64-16.50Q201.80-17.68 204.56-17.68L204.56-17.68Q207.32-17.68 209.46-16.50Q211.60-15.32 212.76-13.26Q213.92-11.20 213.92-8.64L213.92-8.64Q213.92-6.08 212.76-4.02Q211.60-1.96 209.46-0.76Q207.32 0.44 204.52 0.44L204.52 0.44Q201.80 0.44 199.64-0.66Q197.48-1.76 196.26-3.82Q195.04-5.88 195.04-8.64L195.04-8.64ZM199.56-8.60Q199.56-6.32 200.96-4.78Q202.36-3.24 204.44-3.24L204.44-3.24Q206.60-3.24 207.98-4.76Q209.36-6.28 209.36-8.60L209.36-8.60Q209.36-10.92 207.98-12.46Q206.60-14 204.44-14L204.44-14Q202.36-14 200.96-12.42Q199.56-10.84 199.56-8.60L199.56-8.60Z M231.92-17.68Q234.16-17.68 236.04-16.60Q237.92-15.52 239.02-13.50Q240.12-11.48 240.12-8.76L240.12-8.76Q240.12-5.96 238.92-3.88Q237.72-1.80 235.70-0.68Q233.68 0.44 231.32 0.44L231.32 0.44Q229.32 0.44 227.76-0.28Q226.20-1 225.12-2.24L225.12-2.24L225.12 0L220.64 0L220.64-31.20L225.12-31.20L225.12-15.12Q226.20-16.28 227.98-16.98Q229.76-17.68 231.92-17.68L231.92-17.68ZM230.36-3.36Q232.56-3.36 234.06-4.92Q235.56-6.48 235.56-8.80L235.56-8.80Q235.56-10.28 234.86-11.52Q234.16-12.76 232.98-13.46Q231.80-14.16 230.36-14.16L230.36-14.16Q228.48-14.16 227.06-13.20Q225.64-12.24 225.12-10.64L225.12-10.64L225.12-6.88Q225.72-5.24 227.08-4.30Q228.44-3.36 230.36-3.36L230.36-3.36Z M255-3.40Q256.88-3.40 258.80-4.72L258.80-4.72L260.84-1.40Q259.48-0.56 257.92-0.06Q256.36 0.44 254.92 0.44L254.92 0.44Q252 0.44 249.86-0.72Q247.72-1.88 246.58-3.92Q245.44-5.96 245.44-8.60L245.44-8.60Q245.44-11.08 246.72-13.16Q248-15.24 250.20-16.46Q252.40-17.68 255-17.68L255-17.68Q258.44-17.68 260.72-15.66Q263-13.64 263.76-9.96L263.76-9.96L250.72-5.56Q251.40-4.52 252.52-3.96Q253.64-3.40 255-3.40L255-3.40ZM254.64-14.16Q252.52-14.16 251.18-12.68Q249.84-11.20 249.84-8.84L249.84-8.84Q249.84-8.40 249.88-8.16L249.88-8.16L258.76-11.32Q258.24-12.56 257.24-13.36Q256.24-14.16 254.64-14.16L254.64-14.16Z"/></g>
</svg>
</g></svg></svg>